<svg width="103" height="18" viewBox="0 0 103 18" fill="none" xmlns="http://www.w3.org/2000/svg">
<path d="M13.9101 12.64H9.70672L9.0329 14.624H6.16113L10.2362 3.39198H13.4127L17.4878 14.624H14.5839L13.9101 12.64ZM13.2042 10.528L11.8084 6.41598L10.4287 10.528H13.2042Z" fill="black"/>
<path d="M26.6695 7.00798C26.6695 7.65865 26.5197 8.25598 26.2203 8.79998C25.9208 9.33332 25.4609 9.76532 24.8405 10.096C24.2202 10.4267 23.4501 10.592 22.5303 10.592H20.8297V14.624H18.0863V3.39198H22.5303C23.4287 3.39198 24.1881 3.54665 24.8085 3.85598C25.4288 4.16532 25.8941 4.59198 26.2042 5.13598C26.5144 5.67998 26.6695 6.30398 26.6695 7.00798ZM22.3217 8.41598C22.8458 8.41598 23.2362 8.29332 23.4929 8.04798C23.7496 7.80265 23.8779 7.45598 23.8779 7.00798C23.8779 6.55998 23.7496 6.21332 23.4929 5.96798C23.2362 5.72265 22.8458 5.59998 22.3217 5.59998H20.8297V8.41598H22.3217Z" fill="black"/>
<path d="M30.1994 3.39198V14.624H27.456V3.39198H30.1994Z" fill="black"/>
<path d="M36.5353 12.304V14.624H35.1395C34.1448 14.624 33.3694 14.384 32.8132 13.904C32.2571 13.4133 31.979 12.6186 31.979 11.52V7.96798H30.888V5.69598H31.979V3.51998H34.7224V5.69598H36.5192V7.96798H34.7224V11.552C34.7224 11.8187 34.7866 12.0107 34.9149 12.128C35.0433 12.2453 35.2572 12.304 35.5566 12.304H36.5353Z" fill="black"/>
<path d="M41.4967 14.752C40.6197 14.752 39.8282 14.5653 39.1223 14.192C38.4271 13.8186 37.8763 13.2853 37.4698 12.592C37.0741 11.8987 36.8762 11.088 36.8762 10.16C36.8762 9.24265 37.0794 8.43732 37.4859 7.74398C37.8923 7.03998 38.4485 6.50132 39.1544 6.12798C39.8603 5.75465 40.6518 5.56798 41.5288 5.56798C42.4058 5.56798 43.1973 5.75465 43.9032 6.12798C44.6091 6.50132 45.1653 7.03998 45.5717 7.74398C45.9782 8.43732 46.1814 9.24265 46.1814 10.16C46.1814 11.0773 45.9728 11.888 45.5557 12.592C45.1493 13.2853 44.5877 13.8186 43.8711 14.192C43.1652 14.5653 42.3738 14.752 41.4967 14.752ZM41.4967 12.384C42.0208 12.384 42.4647 12.192 42.8283 11.808C43.2027 11.424 43.3898 10.8747 43.3898 10.16C43.3898 9.44532 43.208 8.89598 42.8444 8.51198C42.4914 8.12798 42.0529 7.93598 41.5288 7.93598C40.994 7.93598 40.5502 8.12798 40.1972 8.51198C39.8442 8.88532 39.6678 9.43465 39.6678 10.16C39.6678 10.8747 39.8389 11.424 40.1812 11.808C40.5341 12.192 40.9726 12.384 41.4967 12.384Z" fill="black"/>
<path d="M51.0701 14.752C50.1931 14.752 49.4016 14.5653 48.6957 14.192C48.0005 13.8186 47.4496 13.2853 47.0432 12.592C46.6475 11.8987 46.4496 11.088 46.4496 10.16C46.4496 9.24265 46.6528 8.43732 47.0593 7.74398C47.4657 7.03998 48.0219 6.50132 48.7278 6.12798C49.4337 5.75465 50.2252 5.56798 51.1022 5.56798C51.9792 5.56798 52.7707 5.75465 53.4766 6.12798C54.1825 6.50132 54.7387 7.03998 55.1451 7.74398C55.5516 8.43732 55.7548 9.24265 55.7548 10.16C55.7548 11.0773 55.5462 11.888 55.1291 12.592C54.7227 13.2853 54.1611 13.8186 53.4445 14.192C52.7386 14.5653 51.9471 14.752 51.0701 14.752ZM51.0701 12.384C51.5942 12.384 52.0381 12.192 52.4017 11.808C52.7761 11.424 52.9632 10.8747 52.9632 10.16C52.9632 9.44532 52.7814 8.89598 52.4178 8.51198C52.0648 8.12798 51.6263 7.93598 51.1022 7.93598C50.5674 7.93598 50.1236 8.12798 49.7706 8.51198C49.4176 8.88532 49.2412 9.43465 49.2412 10.16C49.2412 10.8747 49.4123 11.424 49.7546 11.808C50.1075 12.192 50.546 12.384 51.0701 12.384Z" fill="black"/>
<path d="M59.3119 2.78398V14.624H56.5685V2.78398H59.3119Z" fill="black"/>
<path d="M66.1291 14.624L63.4017 10.88V14.624H60.6583V2.78398H63.4017V9.32798L66.1131 5.69598H69.4982L65.7761 10.176L69.5303 14.624H66.1291Z" fill="black"/>
<path d="M71.3137 4.76798C70.8324 4.76798 70.4367 4.62932 70.1265 4.35198C69.8271 4.06398 69.6773 3.71198 69.6773 3.29598C69.6773 2.86932 69.8271 2.51732 70.1265 2.23998C70.4367 1.95198 70.8324 1.80798 71.3137 1.80798C71.7843 1.80798 72.1694 1.95198 72.4689 2.23998C72.779 2.51732 72.9341 2.86932 72.9341 3.29598C72.9341 3.71198 72.779 4.06398 72.4689 4.35198C72.1694 4.62932 71.7843 4.76798 71.3137 4.76798ZM72.6774 5.69598V14.624H69.934V5.69598H72.6774Z" fill="black"/>
<path d="M79.0133 12.304V14.624H77.6176C76.6229 14.624 75.8474 14.384 75.2913 13.904C74.7351 13.4133 74.457 12.6186 74.457 11.52V7.96798H73.3661V5.69598H74.457V3.51998H77.2004V5.69598H78.9973V7.96798H77.2004V11.552C77.2004 11.8187 77.2646 12.0107 77.3929 12.128C77.5213 12.2453 77.7352 12.304 78.0347 12.304H79.0133Z" fill="black"/>
<path d="M81.1832 14.752C80.7019 14.752 80.3062 14.6133 79.996 14.336C79.6965 14.048 79.5468 13.696 79.5468 13.28C79.5468 12.8533 79.6965 12.496 79.996 12.208C80.3062 11.92 80.7019 11.776 81.1832 11.776C81.6538 11.776 82.0388 11.92 82.3383 12.208C82.6485 12.496 82.8036 12.8533 82.8036 13.28C82.8036 13.696 82.6485 14.048 82.3383 14.336C82.0388 14.6133 81.6538 14.752 81.1832 14.752Z" fill="black"/>
<path d="M85.1656 4.76798C84.6843 4.76798 84.2886 4.62932 83.9784 4.35198C83.6789 4.06398 83.5292 3.71198 83.5292 3.29598C83.5292 2.86932 83.6789 2.51732 83.9784 2.23998C84.2886 1.95198 84.6843 1.80798 85.1656 1.80798C85.6362 1.80798 86.0212 1.95198 86.3207 2.23998C86.6309 2.51732 86.786 2.86932 86.786 3.29598C86.786 3.71198 86.6309 4.06398 86.3207 4.35198C86.0212 4.62932 85.6362 4.76798 85.1656 4.76798ZM86.5293 5.69598V14.624H83.7859V5.69598H86.5293Z" fill="black"/>
<path d="M91.9507 14.752C91.0737 14.752 90.2822 14.5653 89.5763 14.192C88.8811 13.8186 88.3302 13.2853 87.9238 12.592C87.5281 11.8987 87.3302 11.088 87.3302 10.16C87.3302 9.24265 87.5334 8.43732 87.9398 7.74398C88.3463 7.03998 88.9025 6.50132 89.6084 6.12798C90.3143 5.75465 91.1057 5.56798 91.9828 5.56798C92.8598 5.56798 93.6513 5.75465 94.3572 6.12798C95.0631 6.50132 95.6193 7.03998 96.0257 7.74398C96.4322 8.43732 96.6354 9.24265 96.6354 10.16C96.6354 11.0773 96.4268 11.888 96.0097 12.592C95.6032 13.2853 95.0417 13.8186 94.3251 14.192C93.6192 14.5653 92.8277 14.752 91.9507 14.752ZM91.9507 12.384C92.4748 12.384 92.9187 12.192 93.2823 11.808C93.6566 11.424 93.8438 10.8747 93.8438 10.16C93.8438 9.44532 93.662 8.89598 93.2983 8.51198C92.9454 8.12798 92.5069 7.93598 91.9828 7.93598C91.448 7.93598 91.0041 8.12798 90.6512 8.51198C90.2982 8.88532 90.1217 9.43465 90.1217 10.16C90.1217 10.8747 90.2929 11.424 90.6351 11.808C90.9881 12.192 91.4266 12.384 91.9507 12.384Z" fill="black"/>
<path d="M0 7.904C0.524084 7.88267 0.909126 7.77067 1.15512 7.568C1.40112 7.35467 1.52412 7.056 1.52412 6.672C1.52412 6.384 1.47064 5.81333 1.36369 4.96C1.35299 4.87467 1.32091 4.60267 1.26743 4.144C1.21395 3.67467 1.18721 3.25333 1.18721 2.88C1.18721 1.97333 1.4653 1.26933 2.02147 0.768C2.57764 0.256 3.32098 0 4.2515 0H5.40663V2.24H4.78093C4.43867 2.24 4.19267 2.31467 4.04294 2.464C3.8932 2.61333 3.81833 2.84267 3.81833 3.152C3.81833 3.38667 3.86111 3.92 3.94668 4.752C4.04294 5.78667 4.09107 6.464 4.09107 6.784C4.09107 7.37067 3.94668 7.856 3.65789 8.24C3.37981 8.624 2.95199 8.86933 2.37442 8.976V9.008C2.95199 9.12533 3.37981 9.376 3.65789 9.76C3.94668 10.1333 4.09107 10.6187 4.09107 11.216C4.09107 11.536 4.04294 12.2133 3.94668 13.248C3.86111 14.0587 3.81833 14.5867 3.81833 14.832C3.81833 15.1413 3.8932 15.3707 4.04294 15.52C4.19267 15.68 4.43867 15.76 4.78093 15.76H5.40663V18H4.2515C3.32098 18 2.57764 17.744 2.02147 17.232C1.4653 16.7307 1.18721 16.0213 1.18721 15.104C1.18721 14.7307 1.21395 14.3147 1.26743 13.856C1.32091 13.3867 1.35299 13.1093 1.36369 13.024C1.47064 12.1707 1.52412 11.6 1.52412 11.312C1.52412 10.9493 1.40112 10.6613 1.15512 10.448C0.909126 10.224 0.524084 10.1013 0 10.08V7.904Z" fill="#7286C0"/>
<path d="M102.407 10.08C101.883 10.1013 101.498 10.224 101.252 10.448C101.006 10.6613 100.883 10.9493 100.883 11.312C100.883 11.6 100.936 12.1707 101.043 13.024C101.054 13.1093 101.086 13.3867 101.139 13.856C101.193 14.3147 101.219 14.7307 101.219 15.104C101.219 16.0213 100.941 16.7307 100.385 17.232C99.829 17.744 99.0856 18 98.1551 18H97V15.76H97.6257C97.9679 15.76 98.2139 15.68 98.3637 15.52C98.5134 15.3707 98.5883 15.1413 98.5883 14.832C98.5883 14.5867 98.5455 14.0587 98.4599 13.248C98.3637 12.2133 98.3156 11.536 98.3156 11.216C98.3156 10.6187 98.4546 10.1333 98.7327 9.76C99.0215 9.376 99.4546 9.12533 100.032 9.008V8.976C99.4546 8.86933 99.0215 8.624 98.7327 8.24C98.4546 7.856 98.3156 7.37067 98.3156 6.784C98.3156 6.464 98.3637 5.78667 98.4599 4.752C98.5455 3.92 98.5883 3.38667 98.5883 3.152C98.5883 2.84267 98.5134 2.61333 98.3637 2.464C98.2139 2.31467 97.9679 2.24 97.6257 2.24H97V0H98.1551C99.0856 0 99.829 0.256 100.385 0.768C100.941 1.26933 101.219 1.97333 101.219 2.88C101.219 3.25333 101.193 3.67467 101.139 4.144C101.086 4.60267 101.054 4.87467 101.043 4.96C100.936 5.81333 100.883 6.384 100.883 6.672C100.883 7.056 101.006 7.35467 101.252 7.568C101.498 7.77067 101.883 7.88267 102.407 7.904V10.08Z" fill="#7286C0"/>
</svg>
